HIERARCHY
ROOT joint_Root
{
	OFFSET 0.0 0.0 0.0
	CHANNELS 6 Xposition Yposition Zposition Zrotation Xrotation Yrotation 
	JOINT Hips
	{
		OFFSET -0.726466 93.3139 -2.00062
		CHANNELS 6 Xposition Yposition Zposition Zrotation Xrotation Yrotation 
		JOINT Spine
		{
			OFFSET 15.7357 0.0 0.0
			CHANNELS 6 Xposition Yposition Zposition Zrotation Xrotation Yrotation 
			JOINT Chest
			{
				OFFSET 8.98455 -0.406207 0.0
				CHANNELS 6 Xposition Yposition Zposition Zrotation Xrotation Yrotation 
				JOINT Neck
				{
					OFFSET 16.3773 0.0 0.0
					CHANNELS 6 Xposition Yposition Zposition Zrotation Xrotation Yrotation 
					JOINT Head
					{
						OFFSET 6.45672 0.0 0.0
						CHANNELS 6 Xposition Yposition Zposition Zrotation Xrotation Yrotation 
						End Site
						{
							OFFSET 0.0 0.0 0.0
						}
					}
				}
				JOINT Shoulder_L
				{
					OFFSET 12.9942 -0.242716 4.98039
					CHANNELS 6 Xposition Yposition Zposition Zrotation Xrotation Yrotation 
					JOINT UpperArm_L
					{
						OFFSET 5.34809 0.0 0.0
						CHANNELS 6 Xposition Yposition Zposition Zrotation Xrotation Yrotation 
						JOINT LowerArm_L
						{
							OFFSET 24.3286 1.87007e-05 0.0
							CHANNELS 6 Xposition Yposition Zposition Zrotation Xrotation Yrotation 
							JOINT Hand_L
							{
								OFFSET 22.2916 0.0 0.0
								CHANNELS 6 Xposition Yposition Zposition Zrotation Xrotation Yrotation 
								End Site
								{
									OFFSET 0.0 0.0 0.0
								}
							}
						}
					}
				}
				JOINT Shoulder_R
				{
					OFFSET 12.9945 -0.242716 -4.98039
					CHANNELS 6 Xposition Yposition Zposition Zrotation Xrotation Yrotation 
					JOINT UpperArm_R
					{
						OFFSET -5.34813 0.0 0.0
						CHANNELS 6 Xposition Yposition Zposition Zrotation Xrotation Yrotation 
						JOINT LowerArm_R
						{
							OFFSET -24.3289 0.000322201 0.0
							CHANNELS 6 Xposition Yposition Zposition Zrotation Xrotation Yrotation 
							JOINT Hand_R
							{
								OFFSET -22.2915 -0.000108084 0.0
								CHANNELS 6 Xposition Yposition Zposition Zrotation Xrotation Yrotation 
								End Site
								{
									OFFSET 0.0 0.0 0.0
								}
							}
						}
					}
				}
			}
		}
		JOINT UpperLeg_L
		{
			OFFSET -2.19248 -6.46944 0.0
			CHANNELS 6 Xposition Yposition Zposition Zrotation Xrotation Yrotation 
			JOINT LowerLeg_L
			{
				OFFSET 39.0811 0.0 -1.23785e-05
				CHANNELS 6 Xposition Yposition Zposition Zrotation Xrotation Yrotation 
				JOINT Foot_L
				{
					OFFSET 40.9854 0.0 -1.26872e-05
					CHANNELS 6 Xposition Yposition Zposition Zrotation Xrotation Yrotation 
					JOINT Toes_L
					{
						OFFSET 11.7543 0.0 0.0
						CHANNELS 6 Xposition Yposition Zposition Zrotation Xrotation Yrotation 
						End Site
						{
							OFFSET 0.0 0.0 0.0
						}
					}
				}
			}
		}
		JOINT UpperLeg_R
		{
			OFFSET -2.19251 6.46944 0.0
			CHANNELS 6 Xposition Yposition Zposition Zrotation Xrotation Yrotation 
			JOINT LowerLeg_R
			{
				OFFSET -39.0811 -0.00228153 -0.0401928
				CHANNELS 6 Xposition Yposition Zposition Zrotation Xrotation Yrotation 
				JOINT Foot_R
				{
					OFFSET -40.9854 0.0 0.0
					CHANNELS 6 Xposition Yposition Zposition Zrotation Xrotation Yrotation 
					JOINT Toes_R
					{
						OFFSET -11.7543 0.0 0.0
						CHANNELS 6 Xposition Yposition Zposition Zrotation Xrotation Yrotation 
						End Site
						{
							OFFSET 0.0 0.0 0.0
						}
					}
				}
			}
		}
	}
}
MOTION
Frames:	4
Frame Time:	0.0333333
0.000000 0.000000 0.000000 0.000000 0.000000 -0.000000 -0.975276 92.027800 -1.530420 87.340700 -2.765770 2.693940 15.735700 0.000005 -0.000001 83.875000 85.595500 -83.664300 8.984550 -0.406207 -0.000000 0.994633 -0.951968 0.429241 16.377300 -0.000001 -0.000001 1.912360 -0.703887 -1.153280 6.456720 -0.000001 -0.000000 -1.300330 -0.218742 4.436490 12.994200 -0.242716 4.980390 -89.514800 -1.354040 -70.281700 5.348090 -0.000007 -0.000001 -69.145900 35.259000 -13.797800 24.328600 0.000019 0.000005 2.547310 5.549150 -24.705700 22.291600 -0.000001 0.000005 5.094620 5.587750 -10.635700 12.994500 -0.242716 -4.980390 87.537700 6.758570 -69.927800 -5.348130 -0.000001 -0.000004 -61.307700 31.311000 -15.719600 -24.328900 0.000322 -0.000009 -1.164220 -2.347160 -26.374100 -22.291500 -0.000108 -0.000004 14.758200 5.620160 -12.634700 -2.192480 -6.469440 -0.000000 -167.737000 -17.003200 -2.613420 39.081100 -0.000007 -0.000012 -0.187788 0.486860 21.092600 40.985400 -0.000006 -0.000013 -6.854070 3.147890 -63.335900 11.754300 -0.000000 0.000003 -0.000108 -0.001095 -16.619500 -2.192510 6.469440 -0.000001 174.681000 19.692300 178.515000 -39.081100 -0.002282 -0.040193 -0.069329 0.213335 18.806600 -40.985400 0.000008 0.000006 -4.245840 4.467480 -62.465700 -11.754300 -0.000006 -0.000006 -0.005274 -0.064090 -19.181000
0.000000 0.000000 0.000000 0.000000 0.000000 -0.000000 -0.962004 92.023400 -1.533740 87.385200 -2.882470 2.829570 15.735700 0.000005 -0.000001 83.821700 85.530200 -83.602900 8.984550 -0.406207 -0.000000 1.123830 -0.974372 0.446845 16.377300 -0.000001 -0.000001 1.993610 -0.749780 -1.129760 6.456720 -0.000001 -0.000000 -1.162980 -0.245140 4.388790 12.994200 -0.242716 4.980390 -89.470400 -1.475870 -70.258100 5.348090 -0.000007 -0.000001 -69.068500 35.069800 -14.067900 24.328600 0.000019 0.000005 2.346450 4.846650 -25.873400 22.291600 -0.000001 0.000005 5.142030 5.593580 -10.965400 12.994500 -0.242716 -4.980390 87.567000 6.647300 -69.843900 -5.348130 -0.000001 -0.000004 -59.308900 35.223400 -16.041000 -24.328900 0.000322 -0.000009 -0.939511 -1.704690 -28.842000 -22.291500 -0.000108 -0.000004 15.153900 5.614380 -12.242700 -2.192480 -6.469440 -0.000000 -167.736000 -17.033000 -2.423830 39.081100 -0.000007 -0.000012 -0.187791 0.487317 21.074700 40.985400 -0.000006 -0.000013 -6.866250 3.083460 -63.353900 11.754300 -0.000000 0.000003 -0.000087 -0.000913 -16.612700 -2.192510 6.469440 -0.000001 174.567000 19.672300 178.630000 -39.081100 -0.002282 -0.040193 -0.070751 0.217107 18.839100 -40.985400 0.000008 0.000006 -4.357850 4.568430 -62.452700 -11.754300 -0.000006 -0.000006 -0.005040 -0.061849 -19.089600
0.000000 0.000000 0.000000 0.000000 0.000000 -0.000000 -0.975758 92.019600 -1.575300 87.346200 -2.835670 2.904500 15.735700 0.000005 -0.000001 83.453500 85.463800 -83.198800 8.984550 -0.406207 -0.000000 1.249920 -1.048360 0.520404 16.377300 -0.000001 -0.000001 2.102380 -0.809149 -1.112810 6.456720 -0.000001 -0.000000 -1.126160 -0.274104 4.391690 12.994200 -0.242716 4.980390 -89.471700 -1.469050 -70.216000 5.348090 -0.000007 -0.000001 -67.997000 34.918200 -15.154000 24.328600 0.000019 0.000005 2.205040 4.197440 -27.746800 22.291600 -0.000001 0.000005 5.452110 5.600750 -11.385800 12.994500 -0.242716 -4.980390 87.603500 6.517890 -69.761600 -5.348130 -0.000001 -0.000004 -56.855000 39.482100 -16.214200 -24.328900 0.000322 -0.000009 -0.720351 -1.123560 -32.654000 -22.291500 -0.000108 -0.000004 14.894400 5.611820 -12.075600 -2.192480 -6.469440 -0.000000 -167.672000 -16.979300 -2.425080 39.081100 -0.000007 -0.000012 -0.188072 0.486239 21.146200 40.985400 -0.000006 -0.000013 -6.865350 3.114750 -63.353300 11.754300 -0.000000 0.000003 -0.000084 -0.000883 -16.611500 -2.192510 6.469440 -0.000001 174.605000 19.714000 178.650000 -39.081100 -0.002282 -0.040193 -0.070698 0.216122 18.906300 -40.985400 0.000008 0.000006 -4.250430 4.570390 -62.473100 -11.754300 -0.000006 -0.000006 -0.005189 -0.063285 -19.148100
0.000000 0.000000 0.000000 0.000000 0.000000 -0.000000 -0.995532 92.016000 -1.633520 87.374600 -2.675000 3.046900 15.735700 0.000005 -0.000001 83.368700 85.382000 -83.097500 8.984550 -0.406207 -0.000000 1.411000 -1.081080 0.555240 16.377300 -0.000001 -0.000001 2.300060 -0.865562 -1.114890 6.456720 -0.000001 -0.000000 -1.114770 -0.322878 4.436360 12.994200 -0.242716 4.980390 -89.513000 -1.346900 -70.118000 5.348090 -0.000007 -0.000001 -65.865400 34.384800 -17.291400 24.328600 0.000019 0.000005 2.735440 4.683680 -30.331100 22.291600 -0.000001 0.000005 5.857260 5.608700 -11.872300 12.994500 -0.242716 -4.980390 87.671800 6.275480 -69.597800 -5.348130 -0.000001 -0.000004 -54.415500 43.346000 -15.937000 -24.328900 0.000322 -0.000009 -0.082827 -0.106834 -37.709400 -22.291500 -0.000108 -0.000004 13.941300 5.616620 -12.392900 -2.192480 -6.469440 -0.000000 -167.667000 -16.931700 -2.396660 39.081100 -0.000007 -0.000012 -0.188309 0.485659 21.193500 40.985400 -0.000006 -0.000013 -6.836330 3.230800 -63.301100 11.754300 -0.000000 0.000003 -0.000099 -0.001024 -16.616800 -2.192510 6.469440 -0.000001 174.537000 19.731600 178.773000 -39.081100 -0.002282 -0.040193 -0.070999 0.216502 18.946700 -40.985400 0.000008 0.000006 -4.360680 4.468570 -62.479400 -11.754300 -0.000006 -0.000006 -0.005347 -0.064782 -19.209200
